<?xml version="1.0" encoding="utf-8" ?>
<svg xmlns="http://www.w3.org/2000/svg" xmlns:xlink="http://www.w3.org/1999/xlink" width="1026" height="1026">
	<path fill="#033D77" transform="matrix(1.00174 -1.22677e-16 1.22677e-16 1.00174 0 0)" d="M274.054 114.087C288.051 105.437 302.041 96.7668 316.732 89.3279Q322.451 86.455 328.253 83.753Q334.054 81.051 339.934 78.5223Q345.813 75.9936 351.764 73.6404Q357.716 71.2871 363.735 69.1115Q369.754 66.9359 375.835 64.9397Q381.915 62.9436 388.053 61.1287Q394.19 59.3138 400.378 57.6818Q406.567 56.0497 412.801 54.6019Q419.035 53.1542 425.309 51.892Q431.583 50.6298 437.892 49.5542Q444.201 48.4787 450.539 47.5907Q456.878 46.7028 463.239 46.0033Q469.601 45.3038 475.98 44.7932Q482.36 44.2827 488.752 43.9617Q495.144 43.6406 501.543 43.5093Q507.941 43.378 514.341 43.4365C532.895 43.6177 552.478 44.0703 570.721 47.6311C604.749 48.7265 644.567 60.2346 675.066 75.1972C682.265 78.729 694.152 88.0484 700.996 89.6504C712.576 92.1635 722.392 98.4988 732.618 104.203C768.386 124.154 797.298 143.752 826.561 172.81C831.521 177.735 837.402 183.011 841.602 188.532C849.792 196.484 867.201 216.376 872.899 225.969Q875.293 229.064 877.632 232.2Q879.97 235.337 882.253 238.515Q884.535 241.693 886.76 244.912Q888.985 248.13 891.153 251.387Q893.32 254.645 895.429 257.94Q897.538 261.236 899.588 264.569Q901.638 267.902 903.627 271.27Q905.617 274.639 907.547 278.043Q909.476 281.447 911.345 284.884Q913.213 288.322 915.02 291.793Q916.827 295.263 918.571 298.765Q920.316 302.267 921.998 305.8Q923.68 309.333 925.298 312.895Q926.917 316.457 928.471 320.048Q930.026 323.638 931.516 327.256Q933.006 330.874 934.432 334.517Q935.857 338.161 937.218 341.83Q938.578 345.498 939.873 349.191Q941.167 352.883 942.396 356.598Q943.624 360.312 944.786 364.048Q945.948 367.785 947.043 371.541Q948.138 375.297 949.166 379.072Q950.194 382.848 951.154 386.641Q952.115 390.433 953.007 394.243Q953.899 398.052 954.724 401.877Q955.548 405.702 956.304 409.541Q957.06 413.38 957.747 417.232Q958.435 421.083 959.053 424.947Q959.672 428.81 960.221 432.684Q960.771 436.558 961.251 440.441Q961.731 444.324 962.142 448.215Q962.553 452.106 962.894 456.004Q964.318 473.361 964.483 490.775C964.503 494.721 964.776 499.123 964.279 503.026C963.818 510.015 963.497 516.956 963.438 523.96C962.943 557.183 955.522 596.415 946.444 628.286C944.227 636.068 941.245 643.631 938.89 651.376C936.584 658.047 934.203 664.707 931.221 671.113C923.701 688.449 916.186 706.377 906.42 722.59C899.416 737.221 889.765 752.075 879.818 764.878C869.358 778.745 859.062 792.767 847.518 805.765C809.532 848.536 761.753 882.327 710.55 907.433C693.12 915.979 674.223 925.253 655.263 929.893C664.245 942.267 670.935 958.01 676.534 972.151Q671.057 973.361 665.554 974.45C662.545 975.497 659.608 975.591 656.45 975.532C651.087 975.279 644.993 977.668 639.977 975.429C636.326 975.22 632.157 976.727 628.607 977.633C625.746 977.431 622.938 976.841 620.124 976.31C618.523 976.9 616.813 977.419 615.335 978.271C610.413 979.99 568.353 980.546 559.818 980.824C426.802 985.159 310.167 965.134 186.344 916.078C190.738 907.79 194.277 899.048 198.61 890.72C206.884 874.816 216.429 859.482 226.39 844.589C219.769 837.461 211.161 831.768 203.823 825.343C188.323 811.774 173.925 797.504 160.866 781.573C156 776.837 151.768 771.019 148.072 765.356Q143.463 759.289 139.072 753.062Q134.68 746.835 130.512 740.457Q126.344 734.079 122.404 727.557Q118.464 721.036 114.757 714.379Q111.05 707.722 107.582 700.938Q104.113 694.154 100.886 687.251Q97.6595 680.349 94.6792 673.337Q91.6988 666.324 88.9685 659.211C84.7297 647.92 81.3165 636.366 77.8744 624.815C73.4205 615.499 72.0614 603.494 70.1471 593.414Q69.2011 588.949 68.3457 584.466Q67.4903 579.983 66.7259 575.483Q65.9614 570.984 65.2882 566.47Q64.6151 561.956 64.0334 557.429Q63.4517 552.902 62.9618 548.364Q62.4719 543.827 62.074 539.28Q61.6761 534.733 61.3703 530.179Q61.0645 525.626 60.851 521.067Q60.6375 516.508 60.5163 511.945Q60.3951 507.383 60.3663 502.819Q60.3375 498.255 60.4011 493.691Q60.4648 489.128 60.6208 484.566Q60.7768 480.005 61.0251 475.448Q61.2734 470.89 61.614 466.339Q61.9545 461.788 62.3871 457.244Q62.8198 452.701 63.3443 448.167Q63.8688 443.633 64.485 439.111Q65.1012 434.589 65.8088 430.08Q66.5165 425.571 67.3152 421.077Q68.114 416.584 69.0036 412.107Q69.8932 407.631 70.8732 403.173Q71.8533 398.716 72.9234 394.279Q73.9935 389.842 75.1532 385.428Q76.3129 381.014 77.5617 376.624Q78.8105 372.234 80.148 367.87Q81.4854 363.507 82.9109 359.171Q84.3365 354.835 85.8495 350.529Q87.3625 346.223 88.9624 341.949Q90.5623 337.674 92.2484 333.433Q93.9345 329.192 95.7061 324.986Q97.4777 320.78 99.3341 316.61Q101.191 312.441 103.131 308.31C111.32 290.98 120.877 274.66 130.849 258.32C133.455 253.94 136.31 249.847 139.327 245.749C148.277 234.754 155.85 222.583 164.788 211.495C168.422 206.878 172.061 202.331 175.998 197.965C186.438 187.111 196.515 175.967 207.429 165.573C220.586 153.044 234.553 141.998 249.338 131.477C256.211 124.191 265.352 118.887 274.054 114.087Z"/>
	<path fill="#F7EBEA" transform="matrix(1.00174 -1.22677e-16 1.22677e-16 1.00174 0 0)" d="M562.173 766.308C564.851 767.267 568.016 768.301 570.389 769.875C572.496 771.272 572.895 772.329 573.395 774.695C570.528 774.3 567.151 773.209 564.861 771.406C562.959 769.908 562.435 768.688 562.173 766.308Z"/>
	<path fill="#F7EBEA" transform="matrix(1.00174 -1.22677e-16 1.22677e-16 1.00174 0 0)" d="M361.286 760.868C363.896 763.569 367.017 768.656 367.948 772.321L367.608 772.795L362.378 772.381Q359.013 772.125 355.645 771.907C357.367 768.137 359.318 764.512 361.286 760.868Z"/>
	<path fill="#F7EBEA" transform="matrix(1.00174 -1.22677e-16 1.22677e-16 1.00174 0 0)" d="M457.222 766.324L457.719 766.814C458.401 769.06 457.689 772.18 457.1 774.41C454.879 782.814 447.599 786.456 440.693 790.488L435.725 789.068L434.473 788.454L434.274 787.685C436.443 785.397 439.865 784.272 442.511 782.566C448.706 778.574 453.069 772.254 457.222 766.324Z"/>
	<path fill="#F7EBEA" transform="matrix(1.00174 -1.22677e-16 1.22677e-16 1.00174 0 0)" d="M547.29 718.24C554.402 721.082 577.005 731.32 581.769 735.739C582.861 736.753 582.419 738.011 582.353 739.365C578.826 739.981 552.247 725.597 548.141 722.929C547.226 721.598 547.377 719.804 547.29 718.24Z"/>
	<path fill="#F7EBEA" transform="matrix(1.00174 -1.22677e-16 1.22677e-16 1.00174 0 0)" d="M417.869 684.215C425.469 683.395 433.729 685.429 440.33 689.199C446.717 692.846 450.235 697.613 452.145 704.62C449.172 701.572 445.945 698.982 442.498 696.493C427.687 688.239 415.858 687.032 399.311 690.026C405.625 686.467 410.611 684.834 417.869 684.215Z"/>
	<path fill="#F7EBEA" transform="matrix(1.00174 -1.22677e-16 1.22677e-16 1.00174 0 0)" d="M469.947 761.788C473.214 765.912 480.792 794.862 481.465 800.971C481.544 801.692 481.59 801.335 481.004 802.066L479.385 801.693L466.297 797.336C467.667 785.437 469.019 773.743 469.947 761.788Z"/>
	<path fill="#F7EBEA" transform="matrix(1.00174 -1.22677e-16 1.22677e-16 1.00174 0 0)" d="M534.139 667.304C544.044 673.315 589.299 694.578 593.679 699.915C594.756 701.226 594.334 702.631 594.259 704.206C586.23 700.639 578.51 695.854 570.806 691.634C558.626 684.962 546.354 678.634 533.577 673.177L534.139 667.304Z"/>
	<path fill="#F7EBEA" transform="matrix(1.00174 -1.22677e-16 1.22677e-16 1.00174 0 0)" d="M525.096 618.152C537.118 624.811 549.488 630.688 561.639 637.092C570.733 641.886 579.616 647.112 588.528 652.236C594.343 655.579 601.845 658.863 606.552 663.669C607.051 665.394 606.59 666.4 606.187 668.129C602.594 667.405 584.009 654.533 579.207 651.772Q562.859 642.442 546.081 633.911C539.274 630.494 532.028 627.476 525.507 623.565C524.671 622.005 525.021 619.889 525.096 618.152Z"/>
	<path fill="#F7EBEA" transform="matrix(1.00174 -1.22677e-16 1.22677e-16 1.00174 0 0)" d="M480.298 210.999C482.541 211.537 484.737 212.268 486.939 212.952C480.817 232.533 473.279 251.571 467.708 271.336L461.074 269.594C465.902 251.349 472.594 228.066 480.298 210.999Z"/>
	<path fill="#F7EBEA" transform="matrix(1.00174 -1.22677e-16 1.22677e-16 1.00174 0 0)" d="M518.791 571.896C528.258 576.778 538.008 581.093 547.496 585.937C561.448 593.061 618.563 623.4 626.044 632.465C626.957 633.571 626.765 633.792 626.6 635.152C626.277 635.268 625.788 635.459 625.46 635.508C623.249 635.838 606.314 624.181 602.859 622.164Q573.485 604.853 543.534 588.559C535.618 584.294 525.919 581.675 518.808 576.214C518.19 574.705 518.532 573.441 518.791 571.896Z"/>
	<path fill="#F7EBEA" transform="matrix(1.00174 -1.22677e-16 1.22677e-16 1.00174 0 0)" d="M510.971 136.489C513.785 138.021 516.257 139.875 518.806 141.802C514.618 151.964 509.219 161.761 504.477 171.683C499.124 182.884 494.426 194.28 489.95 205.857L489.005 206.45C486.892 206.004 485.217 204.59 483.467 203.383C489.582 181.589 501.325 157.171 510.971 136.489Z"/>
	<path fill="#F7EBEA" transform="matrix(1.00174 -1.22677e-16 1.22677e-16 1.00174 0 0)" d="M562.907 59.9035L569.918 61.1093C550.759 83.7706 535.41 109.1 521.809 135.415C519.38 133.421 517.002 131.966 514.217 130.526C528.757 103.644 543.098 83.1329 562.907 59.9035Z"/>
	<path fill="#FE6947" transform="matrix(1.00174 -1.22677e-16 1.22677e-16 1.00174 0 0)" d="M521.69 333.456C522.238 333.574 522.558 333.801 522.936 334.241C527.34 339.362 530.282 362.209 530.45 368.947C530.581 374.217 530.116 379.291 529.258 384.485C525.905 383.808 522.493 383.313 519.12 382.734L514.468 381.813C514.702 366.894 514.371 352.951 508.099 339.092C512.572 337.084 517.147 335.297 521.69 333.456Z"/>
	<path fill="#FE6947" transform="matrix(1.00174 -1.22677e-16 1.22677e-16 1.00174 0 0)" d="M364.714 391.122C367.342 391.61 368.651 396.864 369.674 399.209C374.78 410.908 381.025 419.879 390.297 428.669Q384.359 434.391 378.157 439.826C364.541 426.414 357.322 411.582 351.068 393.771C355.643 393.16 360.193 392.058 364.714 391.122Z"/>
	<path fill="#FE6947" transform="matrix(1.00174 -1.22677e-16 1.22677e-16 1.00174 0 0)" d="M394.333 432.334C397.918 433.896 401.093 436.617 404.574 438.469C414.185 443.583 423.896 446.086 434.576 447.686L435.01 463.12C431.887 463.026 428.769 462.654 425.66 462.355C410.091 460.162 395.121 453.344 382.722 443.791C386.703 440.12 390.486 436.149 394.333 432.334Z"/>
	<path fill="#FE6947" transform="matrix(1.00174 -1.22677e-16 1.22677e-16 1.00174 0 0)" d="M478.701 287.782C496.665 296.721 509.165 308.54 519.31 325.775L509.157 331.306L505.291 333.648C496.07 319.414 486.455 309.713 471.526 301.565C474.041 297.048 476.326 292.376 478.701 287.782Z"/>
	<path fill="#FE6947" transform="matrix(1.00174 -1.22677e-16 1.22677e-16 1.00174 0 0)" d="M358.466 329.715C362.85 332.402 367.519 334.791 372.015 337.296C365.079 352.519 363.454 367.67 365.195 384.194L359.122 385.263C355.908 385.991 352.783 387.038 349.645 388.031C347.178 365.15 350.036 350.961 358.466 329.715Z"/>
	<path fill="#FE6947" transform="matrix(1.00174 -1.22677e-16 1.22677e-16 1.00174 0 0)" d="M403.42 285.507C406.815 289.689 408.315 294.817 410.119 299.808C395.249 306.932 384.259 318.602 374.761 331.783L370.667 329.343Q365.84 326.759 361.154 323.927C373.491 306.765 384.507 295.333 403.42 285.507Z"/>
	<path fill="#FE6947" transform="matrix(1.00174 -1.22677e-16 1.22677e-16 1.00174 0 0)" d="M484.596 431.5C489.11 434.039 492.767 438.842 496.219 442.647C483.651 453.134 469.519 459.068 453.501 461.871L441.424 463.13L441.419 447.554C457.65 447.385 471.309 440.05 484.596 431.5Z"/>
	<path fill="#FE6947" transform="matrix(1.00174 -1.22677e-16 1.22677e-16 1.00174 0 0)" d="M512.935 387.775C517.998 388.675 523.071 389.964 528.102 391.054C523.457 410.571 515.502 423.325 502.384 438.185C501.595 438.906 501.668 438.969 500.54 439.217C496.04 437.309 491.85 431.912 488.446 428.418C500.603 415.548 507.631 404.637 512.935 387.775Z"/>
	<path fill="#FE6947" transform="matrix(1.00174 -1.22677e-16 1.22677e-16 1.00174 0 0)" d="M436.856 278.211C449.19 277.776 460.97 279.889 472.417 284.435C469.927 289.169 467.492 293.857 465.435 298.802C459.532 296.421 453.576 295.055 447.282 294.254C436.512 293.453 427.137 294.7 416.726 297.484C414.315 292.834 412.278 287.983 410.155 283.196C418.924 280.164 427.61 278.696 436.856 278.211Z"/>
	<path fill="#F7EBEA" transform="matrix(1.00174 -1.22677e-16 1.22677e-16 1.00174 0 0)" d="M292.921 781.374C293.628 779.837 294.121 778.19 295.639 777.289C307.031 774.77 334.45 779.087 347.033 780.861C448.114 795.111 528.048 827.071 613.779 881.766Q618.084 884.473 622.255 887.384L620.583 892.121C608.008 882.821 595.496 874.22 581.794 866.646C571.161 858.716 547.61 847.431 534.974 841.511C461.775 807.216 374.237 781.606 292.921 781.374Z"/>
	<path fill="#FE6947" transform="matrix(1.00174 -1.22677e-16 1.22677e-16 1.00174 0 0)" d="M290.378 786.457C291.366 784.808 292.154 783.136 292.921 781.374C374.237 781.606 461.775 807.216 534.974 841.511C547.61 847.431 571.161 858.716 581.794 866.646L581.91 871.871C565.142 863.725 549.221 853.939 532.32 846.039Q523.611 841.885 514.779 838Q505.947 834.115 497 830.502Q488.054 826.889 479 823.553Q469.947 820.216 460.795 817.159Q451.644 814.101 442.403 811.325Q433.162 808.55 423.84 806.059Q414.519 803.568 405.125 801.363Q395.732 799.159 386.275 797.244C375.005 794.94 363.772 792.63 352.366 791.101C331.844 788.351 311.06 787.227 290.378 786.457Z"/>
	<path fill="#F7EBEA" transform="matrix(1.00174 -1.22677e-16 1.22677e-16 1.00174 0 0)" d="M429.007 76.4773C429.262 76.481 429.517 76.4781 429.772 76.4882C431.61 76.5613 432.296 76.6554 433.495 77.9935C434.318 82.8444 430.498 92.7078 428.865 97.6815C404.829 170.909 347.337 275.795 288.033 326.149C275.842 336.5 262.865 344.35 248.625 351.546C247.567 351.885 247.471 351.908 246.409 351.597C245.205 350.046 245.119 347.841 244.812 345.949C256.794 340.161 268.731 334.318 279.221 326.005C325.075 289.666 381.217 200.042 403.603 146.737C410.972 129.19 417.578 111.124 423.946 93.188C425.838 87.8582 425.995 82.0072 428.718 76.9931C428.812 76.82 428.911 76.6493 429.007 76.4773Z"/>
	<path fill="#F7EBEA" transform="matrix(1.00174 -1.22677e-16 1.22677e-16 1.00174 0 0)" d="M402.362 545.689C409.201 550.891 412.054 564.015 413.109 571.981C417.674 606.457 404.619 663.173 386.533 692.891C381.33 701.441 371.685 706.008 366.721 715.099C362.599 722.649 361.578 731.07 359.008 739.137C355.431 750.369 346.923 760.382 339.876 769.631L335.46 768.646C330.894 767.877 326.263 767.574 321.641 767.411C329.515 757.562 337.199 747.629 344.126 737.082Q346.712 733.088 349.191 729.027Q351.671 724.967 354.042 720.842Q356.414 716.717 358.675 712.531Q360.937 708.345 363.088 704.101Q365.238 699.857 367.276 695.558Q369.313 691.258 371.237 686.906Q373.16 682.555 374.968 678.154Q376.776 673.753 378.467 669.305Q380.157 664.858 381.73 660.368Q383.303 655.877 384.757 651.347Q386.211 646.817 387.545 642.25Q388.879 637.683 390.092 633.082Q391.304 628.481 392.395 623.85Q393.486 619.219 394.454 614.561Q395.422 609.902 396.267 605.22Q397.112 600.538 397.833 595.835C400.352 579.176 401.461 562.495 402.362 545.689Z"/>
	<path fill="#F7EBEA" transform="matrix(1.00174 -1.22677e-16 1.22677e-16 1.00174 0 0)" d="M410.36 698.682C418.618 698.069 427.282 700.341 434.309 704.68Q435.232 705.249 436.126 705.864Q437.02 706.479 437.882 707.137Q438.745 707.795 439.573 708.496Q440.402 709.196 441.194 709.937Q441.987 710.677 442.742 711.457Q443.496 712.236 444.211 713.052Q444.927 713.867 445.6 714.718Q446.274 715.568 446.904 716.451Q447.535 717.334 448.121 718.247Q448.707 719.16 449.246 720.101Q449.786 721.042 450.278 722.008Q450.771 722.975 451.214 723.965Q451.658 724.955 452.052 725.966Q452.446 726.977 452.789 728.006Q453.132 729.035 453.423 730.08Q453.715 731.125 453.954 732.183Q454.173 733.163 454.343 734.152Q454.512 735.141 454.632 736.138Q454.752 737.135 454.822 738.136Q454.892 739.138 454.912 740.141Q454.931 741.145 454.901 742.148Q454.87 743.152 454.79 744.152Q454.709 745.153 454.578 746.148Q454.448 747.143 454.267 748.131Q454.087 749.119 453.857 750.096Q453.628 751.073 453.35 752.038Q453.071 753.002 452.745 753.952Q452.419 754.901 452.046 755.833Q451.673 756.765 451.253 757.677Q450.834 758.589 450.37 759.479Q449.905 760.369 449.397 761.234Q448.888 762.1 448.337 762.939C441.221 773.977 430.542 778.814 418.096 781.489C407.733 782.278 396.803 780.102 388.321 773.848C379.41 767.278 373.999 756.437 372.362 745.644Q372.216 744.629 372.121 743.609Q372.026 742.588 371.982 741.564Q371.937 740.54 371.944 739.515Q371.951 738.49 372.009 737.466Q372.067 736.443 372.175 735.423Q372.284 734.404 372.444 733.391Q372.603 732.379 372.812 731.375Q373.022 730.372 373.281 729.38Q373.541 728.388 373.849 727.411Q374.157 726.433 374.514 725.472Q374.871 724.511 375.275 723.569Q375.679 722.627 376.129 721.706Q376.58 720.785 377.076 719.888Q377.571 718.99 378.111 718.119Q378.651 717.247 379.234 716.404Q379.816 715.56 380.44 714.747C387.963 704.738 398.253 700.397 410.36 698.682Z"/>
	<path fill="#FE6947" transform="matrix(1.00174 -1.22677e-16 1.22677e-16 1.00174 0 0)" d="M411.339 703.687C418.986 702.852 427.695 705.238 434.011 709.557C442.357 715.264 448.15 724.881 449.899 734.779Q450.057 735.643 450.173 736.514Q450.288 737.385 450.36 738.261Q450.432 739.136 450.46 740.015Q450.488 740.893 450.472 741.771Q450.456 742.65 450.397 743.526Q450.337 744.403 450.234 745.275Q450.131 746.148 449.985 747.014Q449.839 747.88 449.649 748.738Q449.46 749.596 449.228 750.444Q448.997 751.291 448.723 752.126Q448.449 752.961 448.134 753.781Q447.819 754.602 447.464 755.405Q447.109 756.208 446.714 756.993Q446.319 757.778 445.885 758.542Q445.452 759.307 444.981 760.048Q444.509 760.79 444.002 761.507C437.362 770.893 428.353 775.132 417.312 777.097C407.714 777.607 398.588 775.729 390.804 769.844C383.27 764.148 377.977 754.962 376.791 745.592C375.539 735.703 378.67 725.422 384.77 717.607C391.59 708.868 400.541 704.972 411.339 703.687Z"/>
	<path fill="#F7EBEA" transform="matrix(1.00174 -1.22677e-16 1.22677e-16 1.00174 0 0)" d="M409.124 709.573C416.223 708.807 423.106 709.862 429.221 713.753Q429.889 714.18 430.536 714.639Q431.183 715.098 431.806 715.588Q432.429 716.078 433.028 716.598Q433.627 717.118 434.2 717.666Q434.772 718.215 435.318 718.791Q435.863 719.366 436.379 719.968Q436.896 720.57 437.382 721.196Q437.869 721.822 438.324 722.472Q438.779 723.121 439.203 723.792Q439.626 724.462 440.016 725.153Q440.405 725.843 440.761 726.552Q441.117 727.261 441.437 727.986Q441.758 728.711 442.043 729.451Q442.328 730.191 442.576 730.945Q442.825 731.698 443.036 732.462Q443.247 733.226 443.421 734C445.267 742.363 444.135 751.642 439.337 758.85C434.17 766.61 426.596 769.658 417.873 771.336C411.461 772.006 404.721 771.171 398.985 768.114C391.639 764.199 386.183 757.073 383.976 749.085Q383.765 748.325 383.593 747.556Q383.42 746.787 383.286 746.01Q383.152 745.233 383.057 744.45Q382.962 743.668 382.906 742.881Q382.85 742.095 382.833 741.307Q382.816 740.519 382.839 739.731Q382.862 738.943 382.923 738.157Q382.985 737.371 383.086 736.589Q383.187 735.807 383.327 735.031Q383.467 734.255 383.646 733.487Q383.824 732.719 384.04 731.961Q384.257 731.203 384.511 730.457Q384.765 729.71 385.056 728.978Q385.347 728.245 385.674 727.528Q386.001 726.81 386.364 726.11Q386.726 725.41 387.123 724.729C392.123 716.258 399.873 712.029 409.124 709.573Z"/>
	<path fill="#033D77" transform="matrix(1.00174 -1.22677e-16 1.22677e-16 1.00174 0 0)" d="M412.656 731.561C414.509 731.751 416.105 732.066 417.746 732.995C420.06 734.304 421.865 736.459 422.574 739.039C423.268 741.566 422.925 744.198 421.522 746.424C419.862 749.059 417.544 749.804 414.661 750.525C413.051 750.447 411.499 750.192 409.994 749.581C407.869 748.719 406.064 746.927 405.215 744.796C404.252 742.379 404.456 739.69 405.55 737.355C407.078 734.093 409.442 732.841 412.656 731.561Z"/>
	<path fill="#F7EBEA" transform="matrix(1.00174 -1.22677e-16 1.22677e-16 1.00174 0 0)" d="M482.215 534.83C490.479 540.76 498.674 546.497 507.429 551.683C507.522 566.953 509.259 582.585 511.06 597.745C518.866 663.422 535.911 735.857 561.676 796.761Q570.903 818.337 582.167 838.923C585.281 844.655 589.748 849.88 592.146 855.928C592.213 856.097 592.276 856.267 592.34 856.437C581.512 851.37 571.034 844.631 560.922 838.274Q557.256 831.21 553.748 824.067Q550.24 816.924 546.892 809.704Q543.544 802.484 540.358 795.192Q537.171 787.9 534.148 780.538Q531.124 773.177 528.265 765.75Q525.407 758.323 522.714 750.834Q520.021 743.345 517.495 735.798Q514.97 728.251 512.613 720.65Q510.256 713.049 508.069 705.397Q505.882 697.745 503.866 690.047Q501.85 682.348 500.005 674.607Q498.161 666.865 496.489 659.084Q494.817 651.304 493.319 643.488Q491.821 635.672 490.498 627.825Q489.174 619.977 488.025 612.102Q486.876 604.227 485.903 596.329C483.484 575.9 481.649 555.421 482.215 534.83Z"/>
	<path fill="#F7EBEA" transform="matrix(1.00174 -1.22677e-16 1.22677e-16 1.00174 0 0)" d="M450.155 505.878C451.821 507.227 451.17 524.241 451.254 527.305C451.914 551.41 455.821 576.027 460.188 599.702C475.611 683.311 501.579 753.405 541.372 828.323Q532.45 824.06 523.358 820.174C516.662 817.065 509.977 813.997 503.057 811.414C494.364 794.95 488.059 777.559 481.206 760.291C474.696 743.888 467.999 727.544 462.177 710.879Q452.143 682.004 444.317 652.454Q436.49 622.904 430.914 592.848C427.122 572.714 423.607 552.355 423.475 531.811C427.473 527.771 431.98 524.173 436.061 520.196C440.86 515.519 445.257 510.46 450.155 505.878Z"/>
	<path fill="#FE6947" transform="matrix(1.00174 -1.22677e-16 1.22677e-16 1.00174 0 0)" d="M274.054 114.087C288.051 105.437 302.041 96.7668 316.732 89.3279Q322.451 86.455 328.253 83.753Q334.054 81.051 339.934 78.5223Q345.813 75.9936 351.764 73.6404Q357.716 71.2871 363.735 69.1115Q369.754 66.9359 375.835 64.9397Q381.915 62.9436 388.053 61.1287Q394.19 59.3138 400.378 57.6818Q406.567 56.0497 412.801 54.6019Q419.035 53.1542 425.309 51.892Q431.583 50.6298 437.892 49.5542Q444.201 48.4787 450.539 47.5907Q456.878 46.7028 463.239 46.0033Q469.601 45.3038 475.98 44.7932Q482.36 44.2827 488.752 43.9617Q495.144 43.6406 501.543 43.5093Q507.941 43.378 514.341 43.4365C532.895 43.6177 552.478 44.0703 570.721 47.6311C563.007 49.1024 558.574 50.801 553.092 56.7318C524.716 55.3602 496.758 55.6972 468.725 60.8084C459.152 62.5538 449.818 65.526 440.272 67.2965C434.18 68.4263 426.593 66.3914 421.64 71.0658C419.655 72.9399 418.296 75.5918 417.05 77.9883C403.901 83.1355 390.407 87.4057 377.708 93.6371C326.418 118.806 287.581 161.82 264.807 213.974C262.193 219.96 259.583 226.045 257.597 232.273C253.443 230.486 248.958 229.189 244.679 227.712C245.931 215.79 248.932 203.957 251.494 192.26C255.075 175.908 258.545 159.453 263.595 143.476C266.721 133.585 270.817 123.967 274.054 114.087Z"/>
	<path fill="#FE6947" transform="matrix(1.00174 -1.22677e-16 1.22677e-16 1.00174 0 0)" d="M438.018 303.709C451.977 302.651 467.297 308.001 478.343 316.38Q479.687 317.404 480.978 318.493Q482.27 319.582 483.507 320.733Q484.743 321.884 485.922 323.094Q487.101 324.304 488.219 325.57Q489.337 326.837 490.392 328.157Q491.447 329.476 492.436 330.846Q493.424 332.216 494.345 333.633Q495.265 335.049 496.115 336.509Q496.965 337.97 497.742 339.469Q498.52 340.969 499.223 342.506Q499.925 344.042 500.552 345.611Q501.179 347.18 501.728 348.777Q502.277 350.375 502.747 351.998Q503.217 353.621 503.607 355.264Q503.997 356.908 504.306 358.569Q504.615 360.23 504.842 361.904C507.081 379.568 501.607 398.032 490.646 412C478.583 427.373 461.895 434.56 442.893 436.955C426.084 437.245 410.016 432.677 396.996 421.75Q395.787 420.754 394.629 419.699Q393.47 418.645 392.366 417.534Q391.262 416.423 390.214 415.258Q389.167 414.094 388.178 412.878Q387.19 411.663 386.263 410.4Q385.336 409.137 384.473 407.83Q383.611 406.522 382.814 405.174Q382.017 403.825 381.289 402.438Q380.56 401.052 379.901 399.631Q379.242 398.209 378.655 396.757Q378.068 395.305 377.553 393.825Q377.039 392.346 376.599 390.842Q376.159 389.339 375.794 387.816Q375.429 386.292 375.141 384.753Q374.852 383.213 374.641 381.661Q374.429 380.109 374.295 378.548C372.691 359.65 378.14 340.316 390.606 325.85C402.894 311.589 419.571 305.031 438.018 303.709Z"/>
	<path fill="#033D77" transform="matrix(1.00174 -1.22677e-16 1.22677e-16 1.00174 0 0)" d="M438.777 317.698C449.859 316.816 460.814 320.601 469.577 327.334C480.874 336.015 488.402 349.502 490.212 363.601Q490.387 364.904 490.498 366.214Q490.608 367.524 490.654 368.839Q490.7 370.153 490.68 371.467Q490.661 372.782 490.577 374.094Q490.492 375.406 490.343 376.713Q490.194 378.019 489.98 379.316Q489.766 380.614 489.489 381.899Q489.211 383.184 488.87 384.454Q488.529 385.724 488.126 386.975Q487.723 388.227 487.258 389.457Q486.794 390.687 486.269 391.892Q485.744 393.098 485.16 394.276Q484.576 395.454 483.934 396.601Q483.293 397.749 482.595 398.864Q481.898 399.978 481.146 401.057Q480.394 402.136 479.59 403.176C469.811 415.677 456.16 420.542 440.879 422.435C428.622 422.427 416.508 419.09 406.885 411.289C396.326 402.729 390.424 389.975 389.02 376.607Q388.887 375.258 388.822 373.903Q388.756 372.549 388.758 371.193Q388.76 369.837 388.829 368.483Q388.898 367.129 389.034 365.78Q389.17 364.431 389.374 363.091Q389.577 361.75 389.846 360.421Q390.116 359.093 390.451 357.779Q390.786 356.465 391.186 355.17Q391.586 353.874 392.05 352.6Q392.514 351.326 393.041 350.077Q393.567 348.827 394.155 347.605Q394.743 346.384 395.391 345.193Q396.039 344.002 396.746 342.844Q397.452 341.687 398.215 340.566Q398.978 339.446 399.796 338.364Q400.614 337.283 401.484 336.243C411.38 324.185 423.56 319.287 438.777 317.698Z"/>
	<path fill="#FE6947" transform="matrix(1.00174 -1.22677e-16 1.22677e-16 1.00174 0 0)" d="M439.221 323.204C439.412 323.183 439.603 323.155 439.794 323.141C450.149 322.358 461.289 327.273 469.123 333.783Q470.021 334.536 470.881 335.333Q471.741 336.131 472.56 336.969Q473.379 337.808 474.155 338.687Q474.932 339.565 475.663 340.481Q476.395 341.397 477.081 342.348Q477.766 343.299 478.403 344.283Q479.041 345.267 479.628 346.282Q480.216 347.296 480.753 348.339Q481.289 349.381 481.773 350.449Q482.257 351.516 482.688 352.607Q483.118 353.697 483.494 354.808Q483.87 355.918 484.19 357.046Q484.51 358.174 484.774 359.316Q485.038 360.458 485.245 361.612Q485.451 362.766 485.601 363.929Q485.75 365.092 485.841 366.261C486.811 378.649 483.12 391.22 474.983 400.7C466.578 410.493 454.815 415.526 442.125 416.549C430.277 416.493 419.076 414.176 409.698 406.511Q408.848 405.806 408.034 405.061Q407.22 404.315 406.444 403.53Q405.668 402.745 404.931 401.923Q404.195 401.101 403.499 400.244Q402.804 399.387 402.152 398.496Q401.499 397.606 400.892 396.684Q400.284 395.763 399.722 394.812Q399.161 393.862 398.647 392.885Q398.133 391.908 397.667 390.907Q397.202 389.906 396.786 388.884Q396.371 387.861 396.006 386.819Q395.641 385.777 395.328 384.719Q395.015 383.66 394.755 382.588Q394.494 381.515 394.287 380.431Q394.079 379.347 393.926 378.253Q393.772 377.16 393.672 376.061Q393.548 374.871 393.483 373.676Q393.418 372.481 393.413 371.284Q393.408 370.088 393.462 368.892Q393.517 367.697 393.63 366.506Q393.744 365.314 393.917 364.13Q394.09 362.946 394.322 361.772Q394.554 360.598 394.844 359.437Q395.134 358.276 395.481 357.131Q395.829 355.986 396.233 354.86Q396.637 353.733 397.096 352.628Q397.556 351.523 398.07 350.443Q398.584 349.362 399.151 348.309Q399.718 347.255 400.337 346.231Q400.956 345.207 401.626 344.215Q402.295 343.222 403.013 342.265Q403.73 341.308 404.495 340.387C413.473 329.622 425.465 324.461 439.221 323.204Z"/>
	<path fill="#F7EBEA" transform="matrix(1.00174 -1.22677e-16 1.22677e-16 1.00174 0 0)" d="M435.684 335.588C443.601 335.13 450.573 335.888 457.454 340.151Q458.22 340.632 458.961 341.149Q459.702 341.667 460.416 342.221Q461.131 342.774 461.817 343.362Q462.504 343.951 463.161 344.572Q463.817 345.193 464.442 345.846Q465.068 346.499 465.66 347.182Q466.252 347.865 466.81 348.576Q467.368 349.287 467.89 350.025Q468.412 350.763 468.898 351.526Q469.383 352.289 469.83 353.075Q470.277 353.86 470.684 354.667Q471.092 355.474 471.459 356.3Q471.827 357.126 472.153 357.969Q472.479 358.812 472.764 359.67Q473.048 360.528 473.29 361.399Q473.532 362.27 473.73 363.152Q473.911 363.966 474.05 364.788Q474.19 365.61 474.287 366.438Q474.385 367.265 474.441 368.097Q474.497 368.929 474.51 369.762Q474.524 370.596 474.495 371.429Q474.467 372.262 474.396 373.093Q474.326 373.924 474.213 374.75Q474.101 375.576 473.946 376.395Q473.792 377.214 473.597 378.025Q473.402 378.835 473.166 379.635Q472.93 380.434 472.653 381.221Q472.377 382.007 472.062 382.779Q471.746 383.55 471.392 384.305Q471.038 385.06 470.646 385.796Q470.254 386.531 469.826 387.246Q469.397 387.961 468.933 388.654C463.443 397.002 455.86 401.084 446.262 402.999C438.176 403.19 430.361 402.631 423.194 398.498C415.242 393.911 409.098 385.521 406.831 376.652Q406.639 375.887 406.485 375.113Q406.33 374.339 406.215 373.558Q406.099 372.777 406.023 371.992Q405.946 371.206 405.909 370.418Q405.871 369.63 405.873 368.84Q405.875 368.051 405.915 367.263Q405.956 366.475 406.036 365.69Q406.116 364.905 406.235 364.124Q406.354 363.344 406.511 362.571Q406.668 361.798 406.864 361.033Q407.059 360.268 407.293 359.514Q407.526 358.761 407.796 358.019Q408.067 357.278 408.374 356.551Q408.68 355.823 409.023 355.113Q409.366 354.402 409.743 353.709Q410.121 353.016 410.532 352.342C416.187 343.126 425.401 337.996 435.684 335.588Z"/>
	<path fill="#F7EBEA" transform="matrix(1.00174 -1.22677e-16 1.22677e-16 1.00174 0 0)" d="M436.088 351.593C439.561 351.439 443.01 351.431 446.334 352.589C450.643 354.091 454.164 357.166 456.082 361.325Q456.451 362.126 456.737 362.959Q457.023 363.793 457.223 364.652Q457.423 365.51 457.535 366.384Q457.647 367.259 457.67 368.14Q457.693 369.021 457.626 369.9Q457.559 370.779 457.404 371.647Q457.249 372.514 457.006 373.362Q456.764 374.209 456.437 375.028C454.164 380.581 449.73 383.21 444.449 385.35C440.786 385.64 437.341 385.641 433.86 384.298Q433.069 384.002 432.311 383.628Q431.554 383.255 430.837 382.808Q430.12 382.361 429.452 381.845Q428.783 381.329 428.168 380.75Q427.554 380.17 427 379.532Q426.447 378.895 425.959 378.205Q425.471 377.516 425.055 376.781Q424.638 376.046 424.296 375.274Q423.957 374.479 423.7 373.654Q423.443 372.829 423.27 371.982Q423.097 371.135 423.011 370.275Q422.924 369.415 422.924 368.551Q422.924 367.686 423.011 366.827Q423.099 365.967 423.272 365.12Q423.445 364.273 423.702 363.448Q423.96 362.623 424.299 361.828C426.59 356.455 430.881 353.666 436.088 351.593Z"/>
	<path fill="#F7EBEA" transform="matrix(1.00174 -1.22677e-16 1.22677e-16 1.00174 0 0)" d="M256.223 332.715C255.193 332.926 255.234 332.834 254.314 332.503C253.899 331.857 253.876 331.887 253.571 331.043C252.253 327.393 253.414 317.332 253.528 313.157Q253.642 309.098 253.884 305.046Q254.126 300.993 254.496 296.949Q254.866 292.906 255.364 288.876Q255.862 284.847 256.487 280.835Q257.112 276.823 257.864 272.833Q258.615 268.843 259.493 264.879Q260.37 260.915 261.373 256.98Q262.375 253.046 263.501 249.145Q264.628 245.244 265.877 241.381Q267.126 237.518 268.497 233.696Q269.868 229.874 271.359 226.098Q272.85 222.321 274.46 218.594Q276.069 214.866 277.796 211.192Q279.523 207.517 281.365 203.899Q283.207 200.281 285.163 196.723Q287.119 193.164 289.186 189.67Q291.332 186.111 293.606 182.634Q295.88 179.156 298.28 175.763Q300.679 172.37 303.201 169.067Q305.722 165.764 308.363 162.555Q311.003 159.347 313.759 156.236Q316.514 153.126 319.381 150.118Q322.248 147.11 325.223 144.209Q328.198 141.307 331.277 138.516Q334.356 135.725 337.534 133.048Q340.712 130.371 343.986 127.812Q347.26 125.253 350.625 122.815Q353.99 120.377 357.442 118.063Q360.894 115.749 364.427 113.563Q367.961 111.376 371.572 109.32Q375.183 107.264 378.867 105.341Q382.551 103.418 386.302 101.63C394.333 97.7137 403.038 93.1076 411.794 91.1006C413.296 90.7565 414.48 90.4391 415.846 91.2619L415.925 93.0819L414.211 96.9195L413.234 99.3505Q408.791 114.6 402.473 129.174L401.123 132.903C399.744 136.655 398.388 140.388 396.689 144.012L394.659 148.927C389.127 162.715 382.104 176.485 374.131 189.025L372.265 192.556C367.687 201.849 362.593 211.133 356.48 219.521L354.79 222.314C349.295 231.398 343.753 242.632 336.421 250.268L334.193 253.243C328.698 262.979 320.131 275.677 311.956 283.198C310.519 284.779 309.031 286.334 307.653 287.966Q302.297 295.01 296.133 301.36Q289.97 307.71 283.088 313.273L278.241 317.346C271.292 323.057 264.076 328.3 256.223 332.715Z"/>
	<path fill="#FE6947" transform="matrix(1.00174 -1.22677e-16 1.22677e-16 1.00174 0 0)" d="M401.123 132.903C399.744 136.655 398.388 140.388 396.689 144.012L392.15 140.653C394.911 137.924 397.799 134.927 401.123 132.903Z"/>
	<path fill="#FE6947" transform="matrix(1.00174 -1.22677e-16 1.22677e-16 1.00174 0 0)" d="M283.018 291.824C291.302 289.374 299.018 288.261 307.653 287.966Q302.297 295.01 296.133 301.36Q289.97 307.71 283.088 313.273C282.762 306.108 282.861 298.992 283.018 291.824Z"/>
	<path fill="#FE6947" transform="matrix(1.00174 -1.22677e-16 1.22677e-16 1.00174 0 0)" d="M415.925 93.0819L414.211 96.9195C400.04 102.093 379.439 116.938 366.495 125.726C362.967 125.318 359.496 124.6 356.012 123.924C370.492 112.145 397.722 96.2749 415.925 93.0819Z"/>
	<path fill="#FE6947" transform="matrix(1.00174 -1.22677e-16 1.22677e-16 1.00174 0 0)" d="M312.905 169.71C316.763 169.472 320.119 169.808 323.834 170.826Q317.757 179.066 312.728 187.985C310.062 192.824 307.786 197.856 304.794 202.511L299.125 202.457L286.492 202.396C290.889 193.104 296.87 181.893 303.828 174.348C306.974 170.937 308.273 169.901 312.905 169.71Z"/>
	<path fill="#FE6947" transform="matrix(1.00174 -1.22677e-16 1.22677e-16 1.00174 0 0)" d="M258.081 298.826L278 293.301C277.571 300.401 276.124 310.58 278.241 317.346C271.292 323.057 264.076 328.3 256.223 332.715C257.466 321.614 257.328 310.01 258.081 298.826Z"/>
	<path fill="#FE6947" transform="matrix(1.00174 -1.22677e-16 1.22677e-16 1.00174 0 0)" d="M351.831 127.469C355.897 127.42 360.193 128.74 364.14 129.66C355.876 136.773 347.69 143.927 339.989 151.655C335.76 155.898 331.987 160.695 327.662 164.805C326.562 165.85 326.382 166.1 324.891 166.39C320.476 165.685 315.95 165.341 311.504 164.841C322.839 150.269 336.814 138.1 351.831 127.469Z"/>
	<path fill="#FE6947" transform="matrix(1.00174 -1.22677e-16 1.22677e-16 1.00174 0 0)" d="M371.969 127.391C385.252 116.926 398.285 107.308 413.234 99.3505Q408.791 114.6 402.473 129.174C397.654 131.226 393.552 134.892 389.476 138.121C383.912 133.785 378.219 130.584 371.969 127.391Z"/>
	<path fill="#FE6947" transform="matrix(1.00174 -1.22677e-16 1.22677e-16 1.00174 0 0)" d="M284.782 205.949C290.72 206.619 296.791 206.455 302.763 206.524Q298.018 216.113 293.929 225.999C292.357 229.905 289.602 241.217 286.94 243.49C280.922 243.521 274.89 243.774 268.873 243.935C273.731 231.066 278.235 218.085 284.782 205.949Z"/>
	<path fill="#FE6947" transform="matrix(1.00174 -1.22677e-16 1.22677e-16 1.00174 0 0)" d="M388.717 142.885Q391.651 145.942 394.659 148.927C389.127 162.715 382.104 176.485 374.131 189.025C368.875 184.117 362.975 180.342 356.717 176.854Q371.863 159.064 388.717 142.885Z"/>
	<path fill="#FE6947" transform="matrix(1.00174 -1.22677e-16 1.22677e-16 1.00174 0 0)" d="M333.928 212.612Q344.595 216.956 354.79 222.314C349.295 231.398 343.753 242.632 336.421 250.268C331.189 248.161 324.541 247.646 318.983 246.71C322.726 234.659 327.467 223.455 333.928 212.612Z"/>
	<path fill="#FE6947" transform="matrix(1.00174 -1.22677e-16 1.22677e-16 1.00174 0 0)" d="M354.338 179.743C361.017 183.416 366.832 187.17 372.265 192.556C367.687 201.849 362.593 211.133 356.48 219.521C350.153 215.175 342.748 212.072 335.862 208.718C342.31 199.284 347.951 189.249 354.338 179.743Z"/>
	<path fill="#FE6947" transform="matrix(1.00174 -1.22677e-16 1.22677e-16 1.00174 0 0)" d="M329.245 171.286C336.682 172.964 343.352 175.669 350.357 178.595C346.826 183.243 343.333 187.924 340.262 192.893C337.72 197.004 335.501 201.507 332.621 205.383C332.136 206.037 331.658 206.43 330.956 206.832Q319.809 204.564 308.584 202.725Q317.849 186.305 329.245 171.286Z"/>
	<path fill="#FE6947" transform="matrix(1.00174 -1.22677e-16 1.22677e-16 1.00174 0 0)" d="M272.745 247.75C277.191 247.521 281.672 247.595 286.124 247.569C282.587 261.257 279.884 274.731 277.948 288.739L269.388 290.936C265.69 292.013 262.036 293.296 258.376 294.498C258.768 283.993 263.894 257.291 268.163 248.415C269.529 247.687 271.209 247.819 272.745 247.75Z"/>
	<path fill="#FE6947" transform="matrix(1.00174 -1.22677e-16 1.22677e-16 1.00174 0 0)" d="M306.658 206.892C314.486 207.833 322.002 209.488 329.634 211.402C324.085 222.732 319.482 233.88 315.705 245.926C307.818 244.733 299.904 244.076 291.96 243.409C296.176 230.94 300.83 218.699 306.658 206.892Z"/>
	<path fill="#FE6947" transform="matrix(1.00174 -1.22677e-16 1.22677e-16 1.00174 0 0)" d="M368.182 131.356C374.321 132.856 380.408 137.82 385.621 141.273C378.942 147.173 372.448 153.616 366.398 160.158C362.321 164.567 357.879 171.03 353.026 174.399L351.265 173.927C344.912 171.183 338.123 169.408 331.469 167.555C342.286 153.583 354.326 142.248 368.182 131.356Z"/>
	<path fill="#FE6947" transform="matrix(1.00174 -1.22677e-16 1.22677e-16 1.00174 0 0)" d="M290.592 247.378C298.545 248.684 306.746 249.19 314.761 250.177C313.321 257.344 312.054 265.115 312.317 272.426C314.108 265.001 316.014 257.645 318.34 250.368Q326.254 251.877 334.193 253.243C328.698 262.979 320.131 275.677 311.956 283.198C302.405 282.218 292.148 285.106 282.939 287.432C283.208 273.752 287.04 260.487 290.592 247.378Z"/>
	<path fill="#FE6947" transform="matrix(1.00174 -1.22677e-16 1.22677e-16 1.00174 0 0)" d="M637.25 638.547C649.528 649.004 663.687 656.403 676.531 665.974C673.561 739.086 664.601 800.328 644.804 870.68C642.221 879.857 639.895 895.081 633.611 902.185C629.637 896.711 631.829 887.873 632.677 881.623C626.896 876.1 619.16 873.429 613.531 867.871C609.272 863.665 606.212 858.172 603.113 853.102C592.341 835.48 583.122 817.416 577.067 797.623C580.626 788.492 582.168 779.045 585.362 769.923C587.184 764.718 590.309 759.976 591.856 754.657C593.115 750.327 592.865 745.694 594.177 741.331C596.143 734.798 600.462 729.088 602.367 722.467C603.965 716.911 603.685 710.94 605.352 705.424C607.325 698.894 611.936 693.637 614.37 687.329C616.544 681.693 616.464 675.556 617.572 669.683C619.552 659.186 628.354 644.601 637.25 638.547Z"/>
	<path fill="#F7EBEA" transform="matrix(1.00174 -1.22677e-16 1.22677e-16 1.00174 0 0)" d="M212.328 887.331C223.492 882.654 236.604 880.051 248.431 877.503C312.287 863.746 378.269 866.013 441.738 880.736Q447.755 882.1 453.736 883.613Q459.718 885.125 465.659 886.787Q471.601 888.448 477.5 890.257Q483.398 892.065 489.25 894.02Q495.102 895.975 500.903 898.075Q506.704 900.174 512.452 902.418Q518.199 904.661 523.889 907.047Q529.578 909.433 535.207 911.959Q540.835 914.486 546.399 917.152Q551.963 919.817 557.459 922.621Q562.955 925.424 568.38 928.364Q573.804 931.303 579.154 934.376Q584.504 937.45 589.775 940.655Q595.047 943.86 600.237 947.196Q605.427 950.532 610.533 953.996Q615.638 957.459 620.656 961.049C623.817 963.32 638.617 973.247 639.977 975.429C636.326 975.22 632.157 976.727 628.607 977.633C625.746 977.431 622.938 976.841 620.124 976.31C618.523 976.9 616.813 977.419 615.335 978.271C601.648 972.482 586.931 968.194 572.866 963.385C475.619 930.133 378.063 909.655 274.931 909.031C249.469 908.877 224.195 909.016 199.08 913.675C203.108 904.761 207.835 896.022 212.328 887.331Z"/>
	<path fill="#FE6947" transform="matrix(1.00174 -1.22677e-16 1.22677e-16 1.00174 0 0)" d="M208.49 904.201C323.667 890.088 446.907 910.426 555.825 947.985C579.737 956.231 606.721 964.908 628.607 977.633C625.746 977.431 622.938 976.841 620.124 976.31C545.016 947.152 467.462 923.314 387.387 912.701Q360.128 909.253 332.705 907.531Q305.283 905.81 277.806 905.822C253.823 905.75 228.669 905.029 204.907 908.714C206.092 907.212 207.239 905.647 208.49 904.201Z"/>
	<path fill="#F7EBEA" transform="matrix(1.00174 -1.22677e-16 1.22677e-16 1.00174 0 0)" d="M537.836 403.486C571.997 419.205 614.62 429.832 635.705 463.727C652.936 491.427 655.84 523.268 653.737 555.033C652.896 567.728 651.429 580.023 648.514 592.423Q629.905 585.472 611.709 577.501C584.826 566.107 557.679 554.207 531.962 540.365C523.744 535.942 515.297 531.535 507.696 526.093C501.224 521.458 495.296 516.067 490.553 509.647C481.179 496.957 479.947 483.326 482.237 468.146C506.908 452.093 528.651 432.395 537.836 403.486Z"/>
	<path fill="#033D77" transform="matrix(1.00174 -1.22677e-16 1.22677e-16 1.00174 0 0)" d="M634.854 509.401C636.782 509.46 638.926 509.581 640.343 511.097C641.281 512.1 641.681 513.061 641.619 514.449C641.516 516.789 640.223 517.948 638.677 519.516C636.867 519.513 634.931 519.423 633.415 518.287C632.39 517.517 631.847 516.356 631.847 515.081C631.846 512.681 633.361 511.097 634.854 509.401Z"/>
	<path fill="#033D77" transform="matrix(1.00174 -1.22677e-16 1.22677e-16 1.00174 0 0)" d="M604.978 450.064C606.85 449.961 608.777 449.7 610.457 450.719C611.57 451.394 612.375 452.346 612.552 453.666C612.919 456.41 611.171 458.317 609.459 460.194C607.587 460.351 605.902 460.294 604.368 459.037C603.263 458.132 602.749 456.831 602.661 455.444C602.511 453.078 603.553 451.791 604.978 450.064Z"/>
	<path fill="#FE6947" transform="matrix(1.00174 -1.22677e-16 1.22677e-16 1.00174 0 0)" d="M516.092 445.447L516.411 445.765C516.509 449.602 512.047 454.833 510.436 458.435Q509.987 459.436 509.589 460.458Q509.19 461.481 508.844 462.522Q508.498 463.563 508.205 464.62Q507.911 465.678 507.671 466.748Q507.431 467.819 507.246 468.9Q507.06 469.982 506.929 471.071Q506.798 472.16 506.722 473.255Q506.646 474.349 506.625 475.446Q506.604 476.543 506.638 477.64Q506.672 478.737 506.762 479.83Q506.851 480.924 506.995 482.012Q507.14 483.099 507.339 484.178Q507.537 485.257 507.79 486.325Q508.043 487.393 508.349 488.446Q508.656 489.5 509.015 490.537Q509.373 491.573 509.784 492.591Q510.431 494.196 511.165 495.762Q511.9 497.328 512.721 498.852Q513.541 500.375 514.445 501.85Q515.348 503.326 516.332 504.749Q517.316 506.172 518.378 507.538Q519.439 508.904 520.575 510.21Q521.711 511.515 522.917 512.755Q524.123 513.995 525.396 515.167C549.716 537.841 600.517 556.914 631.751 571.184C634.455 572.419 638.65 574.798 639.704 577.652L639.259 578.302C634.736 579.222 630.653 576.52 626.623 574.746C594.146 561.197 520.345 530.106 499.372 505.769C493.325 498.752 488.594 488.494 489.573 479.057C490.878 466.473 506.957 452.852 516.092 445.447Z"/>
	<path fill="#F7EBEA" transform="matrix(1.00174 -1.22677e-16 1.22677e-16 1.00174 0 0)" d="M290.378 786.457C311.06 787.227 331.844 788.351 352.366 791.101C363.772 792.63 375.005 794.94 386.275 797.244Q395.732 799.159 405.125 801.363Q414.519 803.568 423.84 806.059Q433.162 808.55 442.403 811.325Q451.644 814.101 460.795 817.159Q469.947 820.216 479 823.553Q488.054 826.889 497 830.502Q505.947 834.115 514.779 838Q523.611 841.885 532.32 846.039C549.221 853.939 565.142 863.725 581.91 871.871C614.073 892.201 637.78 918.584 655.337 952.316C659.099 959.544 662.044 967.11 665.554 974.45C662.545 975.497 659.608 975.591 656.45 975.532Q642.732 963.506 628.022 952.716Q613.312 941.926 597.722 932.452C513.069 880.428 402.748 851.173 303.464 858.777C275.355 860.93 248.348 866.749 220.995 873.277C234.17 851.531 249.541 831.638 266.411 812.635C274.275 803.776 282.859 795.627 290.378 786.457Z"/>
	<path fill="#FE6947" transform="matrix(1.00174 -1.22677e-16 1.22677e-16 1.00174 0 0)" d="M274.159 809.412L274.623 809.776C273.683 813.574 271.759 817.205 271.661 821.164C271.586 824.157 271.671 827.086 272.42 830.006C278.481 853.642 297.143 843.346 308.773 850.892C309.645 851.458 309.782 851.466 310.023 852.512C307.112 854.322 270.597 857.353 263.586 858.577C252.749 860.233 242.241 863.118 231.767 866.287C238.193 854.739 246.228 844.305 254.147 833.766C260.423 825.411 266.635 816.702 274.159 809.412Z"/>
	<path fill="#FE6947" transform="matrix(1.00174 -1.22677e-16 1.22677e-16 1.00174 0 0)" d="M344.756 851.066C340.394 851.309 335.839 850.865 331.451 850.857C326.668 850.848 321.362 851.471 316.653 850.753C323.139 848.05 343.207 849.301 351.081 849.483C422.648 850.866 490.688 871.263 555.443 900.527C555.61 887.856 554.436 875.238 554.556 862.602C563.641 866.95 572.486 871.249 580.417 877.558C581.351 891.095 581.753 904.777 583.124 918.271C572.738 912.562 562.358 906.753 551.678 901.61Q542.612 897.283 533.384 893.312Q524.156 889.341 514.782 885.73Q505.407 882.12 495.899 878.877Q486.391 875.634 476.764 872.762Q467.138 869.89 457.407 867.394Q447.676 864.898 437.855 862.782Q428.035 860.666 418.139 858.933Q408.244 857.2 398.289 855.852Q381.204 853.55 364 852.45C357.648 851.998 351.032 852.011 344.756 851.066Z"/>
	<path fill="#F7EBEA" transform="matrix(1.00174 -1.22677e-16 1.22677e-16 1.00174 0 0)" d="M580.375 59.9743C590.675 60.7925 600.601 62.3979 610.685 64.6255C655.732 74.5765 716.347 105.739 741.699 145.414Q739.423 145.424 737.148 145.492C681.69 147.231 605.546 197.165 568.646 236.554C548.698 256.757 532.37 279.001 517.549 303.159C503.004 289.42 492.391 280.558 473.411 272.956C481.405 244.695 492.301 215.671 503.835 188.635C518.338 154.637 553.238 82.4543 580.375 59.9743Z"/>
	<path fill="#FE6947" transform="matrix(1.00174 -1.22677e-16 1.22677e-16 1.00174 0 0)" d="M581.446 64.5036C587.864 64.4077 594.482 65.6137 600.764 66.8587Q604.254 67.5761 607.724 68.3893Q611.193 69.2025 614.639 70.1109Q618.084 71.0193 621.504 72.0221Q624.923 73.025 628.314 74.1215Q631.704 75.2181 635.063 76.4076Q638.422 77.597 641.747 78.8784Q645.072 80.1599 648.36 81.5323Q651.649 82.9048 654.898 84.3672Q658.148 85.8296 661.356 87.3809Q664.564 88.9322 667.728 90.5711Q670.892 92.2101 674.01 93.9355Q677.128 95.661 680.197 97.4715Q683.266 99.2821 686.284 101.176Q689.302 103.071 692.267 105.047Q695.232 107.024 698.141 109.082Q701.05 111.139 703.902 113.276C713.877 120.749 723.514 128.775 730.494 139.215C721.878 141.102 713.085 141.771 704.572 144.205C661.959 156.385 618.446 182.22 585.05 211.078C572.584 221.851 561.245 233.588 550.103 245.697Q538.878 258.199 528.9 271.717C523.804 278.543 518.964 285.722 513.413 292.182C523.277 268.484 546.305 237.668 564.192 219.007C576.409 206.261 589.855 194.12 600.094 179.65C606.025 171.268 611.473 160.346 609.421 149.777C607.682 140.823 601.266 134.08 593.923 129.173C577.742 118.357 563.073 114.111 543.807 117.844C551.343 100.233 568.626 78.7829 581.446 64.5036Z"/>
	<path fill="#FE6947" transform="matrix(1.00174 -1.22677e-16 1.22677e-16 1.00174 0 0)" d="M700.996 89.6504C712.576 92.1635 722.392 98.4988 732.618 104.203C768.386 124.154 797.298 143.752 826.561 172.81C831.521 177.735 837.402 183.011 841.602 188.532C841.994 195.176 849.575 212.943 851.981 220.516C858.613 241.385 865.032 262.495 870.481 283.702Q877.126 310.305 882.396 337.213Q887.667 364.122 891.549 391.265Q895.432 418.409 897.917 445.716Q900.401 473.023 901.481 500.421C893.195 499.78 884.948 499.089 876.718 497.908C866.61 496.458 829.341 488.307 822.217 490.379C822.026 490.218 821.833 490.06 821.644 489.897C813.086 482.532 812.212 474.687 811.363 464.117C818.18 459.326 825.372 455.056 832.12 450.165C838.794 445.327 847.105 438.441 848.271 429.744C848.88 425.205 847.35 420.538 844.816 416.805C839.75 409.344 831.532 403.915 825.07 397.726Q811.668 384.652 800.353 369.734C793.684 360.944 780.817 345.303 782.869 333.982C784.076 327.324 787.772 320.94 790.504 314.808C793.563 307.94 796.021 300.401 797.005 292.929C800.902 263.317 780.73 221.824 765.526 196.919C758.844 185.973 751.365 175.707 743.606 165.507C747.845 161.586 751.952 156.965 753.656 151.326C754.691 147.899 754.634 144.422 753.386 141.064C748.114 126.881 724.568 108.881 712.43 99.3272C709.134 96.733 702.927 93.2516 700.996 89.6504Z"/>
	<path fill="#F7EBEA" transform="matrix(1.00174 -1.22677e-16 1.22677e-16 1.00174 0 0)" d="M533.479 66.0965Q538.454 66.2104 543.431 66.1883L544.708 66.7642C544.667 68.1503 544.333 68.7232 543.542 69.8841C540.978 73.6442 537.638 76.9086 534.908 80.5584C529.906 87.2446 525.475 94.6485 521.087 101.761C495.86 142.657 478.597 187.069 464.203 232.754C460.521 244.441 455.882 256.432 454.303 268.601C423.075 266.811 397.619 271.059 373.513 292.467Q372.517 293.341 371.542 294.239Q370.568 295.138 369.616 296.06Q368.664 296.982 367.736 297.928Q366.807 298.874 365.902 299.842Q364.998 300.811 364.117 301.802Q363.237 302.792 362.381 303.805Q361.526 304.817 360.696 305.85Q359.866 306.884 359.062 307.937Q358.258 308.991 357.48 310.064Q356.702 311.137 355.952 312.229Q355.201 313.322 354.477 314.432Q353.754 315.543 353.059 316.671Q352.363 317.799 351.696 318.944Q351.028 320.089 350.39 321.251Q349.751 322.412 349.142 323.589Q348.532 324.766 347.952 325.958Q347.372 327.149 346.822 328.355Q346.271 329.561 345.751 330.78Q345.231 331.999 344.742 333.23Q344.252 334.462 343.793 335.705Q343.334 336.949 342.906 338.203Q342.478 339.458 342.082 340.722Q341.685 341.987 341.32 343.261Q340.955 344.535 340.622 345.818Q340.289 347.101 339.988 348.391Q339.687 349.682 339.418 350.98Q339.149 352.278 338.912 353.582Q338.675 354.886 338.471 356.195Q338.267 357.505 338.095 358.819Q337.924 360.133 337.785 361.451Q337.646 362.769 337.54 364.09Q337.434 365.412 337.361 366.735Q337.299 368.023 337.268 369.312Q337.238 370.601 337.239 371.89Q337.24 373.18 337.272 374.469Q337.305 375.758 337.368 377.046Q337.432 378.333 337.527 379.619Q337.622 380.905 337.749 382.188Q337.875 383.471 338.033 384.751Q338.191 386.031 338.38 387.306Q338.569 388.582 338.789 389.852Q339.009 391.123 339.26 392.388Q339.51 393.652 339.792 394.911Q340.074 396.169 340.386 397.42Q340.698 398.671 341.041 399.914Q341.383 401.157 341.756 402.391Q342.129 403.626 342.532 404.851Q342.935 406.075 343.368 407.29Q343.8 408.505 344.262 409.709Q344.724 410.912 345.216 412.104Q345.707 413.297 346.227 414.476Q346.747 415.656 347.296 416.823Q347.845 417.99 348.422 419.143Q348.999 420.296 349.604 421.434Q350.21 422.573 350.842 423.696Q351.475 424.82 352.135 425.928Q352.795 427.035 353.481 428.127Q354.168 429.218 354.881 430.292Q355.594 431.367 356.333 432.423Q357.072 433.48 357.837 434.518Q358.602 435.556 359.391 436.575Q360.181 437.595 360.996 438.594Q361.81 439.594 362.648 440.574Q363.487 441.553 364.349 442.512C382.772 462.683 409.19 473.454 436.267 474.454C440.882 474.625 445.535 474.565 450.15 474.461C431.954 492.964 413.482 510.626 391.616 524.767C386.29 522.984 380.812 521.373 375.733 518.96C375.686 518.953 375.638 518.95 375.592 518.939C370.201 517.603 364.633 514.042 359.78 511.317C334.533 497.137 301.769 471.968 287.077 447.174C283.837 444.433 280.941 438.943 278.664 435.26Q275.935 430.883 273.402 426.389Q270.87 421.896 268.538 417.294Q266.207 412.693 264.081 407.993Q261.956 403.294 260.04 398.504Q258.124 393.715 256.422 388.846Q254.72 383.977 253.236 379.037Q251.751 374.097 250.486 369.096Q249.221 364.096 248.178 359.044C256.866 354.651 265.39 350.025 273.57 344.735C290.346 333.887 304.254 319.984 317.545 305.203C363.145 254.492 399.606 190.916 424.788 127.73C431.221 111.591 437.328 95.4079 440.967 78.3851C471.474 68.6634 501.529 65.8688 533.479 66.0965Z"/>
	<path fill="#033D77" transform="matrix(1.00174 -1.22677e-16 1.22677e-16 1.00174 0 0)" d="M303.065 396.945C304.154 397.004 305.83 397.002 306.749 397.657C309.74 399.79 315.259 412.359 317.805 416.251C326.338 429.293 336.824 441.558 348.691 451.664C352.658 455.043 368.192 465.112 369.45 468.879C369.426 471.667 367.765 472.974 365.935 474.85C365.395 474.936 365.082 475.008 364.503 474.986C355.226 474.627 326.969 443.889 320.478 435.637C315.563 429.388 298.696 407.099 300.42 400.03C300.839 398.31 301.742 397.952 303.065 396.945Z"/>
	<path fill="#033D77" transform="matrix(1.00174 -1.22677e-16 1.22677e-16 1.00174 0 0)" d="M285.57 406.403C287.333 406.425 289.013 406.548 290.538 407.536C292.065 408.526 293.317 410.824 294.244 412.386C297.417 417.731 300.098 423.379 303.424 428.631C312.719 443.308 324.974 456.571 338.415 467.523C343.029 471.282 347.956 474.636 352.643 478.298C354.06 479.404 357.219 481.424 357.407 483.294C357.622 485.446 356.211 486.924 354.993 488.532C354.481 488.725 354.064 488.918 353.496 488.953C350.675 489.127 346.301 485.793 344.068 484.168C322.432 468.421 305.423 449.333 291.49 426.539C288.767 422.085 284.689 416.336 284.054 411.057C283.815 409.075 284.415 407.947 285.57 406.403Z"/>
	<path fill="#FE6947" transform="matrix(1.00174 -1.22677e-16 1.22677e-16 1.00174 0 0)" d="M287.077 447.174C287.979 447.456 288.749 447.712 289.482 448.334C292.797 451.144 295.572 455.24 298.474 458.502C302.863 463.437 308.018 468.189 313.108 472.411Q319.599 477.861 326.481 482.808Q333.363 487.754 340.598 492.169Q347.833 496.584 355.38 500.442Q362.927 504.3 370.742 507.579C387.383 501.288 399.455 488.571 412.757 477.421C420.631 478.478 428.668 478.869 436.489 480.131C422.344 494.837 407.077 508.788 389.139 518.751C385.462 517.939 379.97 516.195 376.538 518.409C376.265 518.586 376.001 518.776 375.733 518.96C375.686 518.953 375.638 518.95 375.592 518.939C370.201 517.603 364.633 514.042 359.78 511.317C334.533 497.137 301.769 471.968 287.077 447.174Z"/>
	<path fill="#FE6947" transform="matrix(1.00174 -1.22677e-16 1.22677e-16 1.00174 0 0)" d="M533.479 66.0965Q538.454 66.2104 543.431 66.1883C510.42 100.657 484.023 152.277 468.411 196.94C460.76 218.83 454.738 241.879 446.263 263.365C449.435 246.838 453.284 230.79 458.273 214.703Q463.792 196.854 470.185 179.298C475.139 165.758 485.523 148.409 484.753 134.017C484.456 128.467 482.146 123.423 477.921 119.771C466.621 110.007 450.069 111.4 436.317 112.627C440.547 102.296 444.054 92.0675 447.204 81.3535C469.069 74.4638 499.247 71.4603 522.216 71.5032C513.485 87.2254 500.601 103.529 494.141 120.449C500.546 112.089 505.673 102.353 511.732 93.6478C515.729 87.9054 519.756 82.2611 524.221 76.8693C527.135 73.3502 530.347 70.0745 533.173 66.4894L533.479 66.0965Z"/>
	<path fill="#F7EBEA" transform="matrix(1.00174 -1.22677e-16 1.22677e-16 1.00174 0 0)" d="M726.942 165.63C750.212 191.745 767.876 220.312 779.158 253.538C782.909 264.585 786.257 275.958 785.526 287.751C784.936 297.259 781.461 306.467 777.938 315.235C775.183 322.094 771.657 329.016 771.358 336.533C771.203 340.43 771.991 344.296 773.432 347.907C778.427 360.422 793.693 380.414 802.903 391.004C809.156 398.193 815.972 405.229 822.894 411.773C826.766 415.433 831.4 418.59 834.814 422.675C835.908 423.985 836.789 425.195 836.686 426.999C836.407 431.873 832.264 435.973 828.698 438.893C820.13 445.908 809.727 450.274 801.104 457.208C800.333 467.905 801.527 477.502 805.366 487.569C790.877 495.693 775.838 505.353 765.007 518.118C778.556 510.391 790.672 499.866 803.842 491.431C807.971 493.201 811.706 495.724 815.494 498.117C813.674 505.165 810.246 509.415 805.265 514.508C794.967 514.497 784.563 515.064 774.511 517.446C759.258 521.061 751.375 530.299 734.592 524.98C739.417 528.667 742.423 531.016 748.758 530.216C761.924 528.551 788.976 517.116 800.491 525.36C804.408 528.164 805.772 533.047 806.311 537.615C806.573 539.832 806.24 541.616 804.779 543.363C803.832 544.495 802.734 545.508 801.641 546.496C786.996 545.168 772.707 542.881 758.292 539.979C768.991 547.634 780.564 552.681 793.009 556.798C790.896 562.445 788.97 567.752 789.164 573.858C789.615 588.09 798.998 598.712 791.368 613.381Q790.943 614.214 790.451 615.009Q789.958 615.804 789.403 616.557Q788.847 617.309 788.231 618.013Q787.616 618.717 786.945 619.368Q786.274 620.019 785.551 620.613Q784.829 621.207 784.06 621.74Q783.292 622.273 782.482 622.741Q781.672 623.209 780.827 623.609C761.566 632.61 718.294 616.565 698.529 610.004C687.299 606.277 675.988 602.734 664.951 598.459Q660.838 596.86 656.755 595.186C663.372 548.586 669.093 496.319 638.789 456.132C616.41 426.454 573.566 409.292 539.061 398.038C542.959 379.367 542.967 363.533 539.479 344.873C537.954 340.969 536.777 336.865 535.462 332.882L531.006 322.406C537.856 310.243 544.755 298.226 552.852 286.83C591.224 232.823 647.769 187.316 712.202 169.27Q719.521 167.242 726.942 165.63Z"/>
	<path fill="#033D77" transform="matrix(1.00174 -1.22677e-16 1.22677e-16 1.00174 0 0)" d="M775.821 423.459L776.275 423.888C772.243 428.702 768.458 433.252 768.032 439.841C767.47 448.527 772.41 456.81 778.365 462.746C780.119 464.493 782.136 465.92 783.791 467.767C782.674 468 782.325 467.726 781.265 467.38C776.043 464.631 771.123 462.564 767.262 457.843Q766.93 457.438 766.62 457.015Q766.309 456.593 766.021 456.156Q765.732 455.718 765.467 455.266Q765.202 454.814 764.96 454.349Q764.718 453.885 764.501 453.408Q764.283 452.931 764.091 452.444Q763.898 451.956 763.731 451.459Q763.564 450.963 763.423 450.458Q763.282 449.953 763.167 449.442Q763.052 448.931 762.963 448.414Q762.875 447.898 762.813 447.378Q762.751 446.857 762.717 446.334Q762.682 445.811 762.674 445.287Q762.666 444.763 762.686 444.24Q762.705 443.716 762.751 443.194Q762.798 442.672 762.871 442.153C763.959 433.855 769.449 428.214 775.821 423.459Z"/>
	<path fill="#033D77" transform="matrix(1.00174 -1.22677e-16 1.22677e-16 1.00174 0 0)" d="M821.185 433.557C822.413 433.475 823.177 433.593 824.344 433.98L824.466 434.838C819.791 441.614 798.54 451.024 790.316 454.558C790.034 454.515 789.74 454.521 789.47 454.427C788.115 453.957 787.836 453.332 787.244 452.156C787.259 451.049 787.285 450.463 787.805 449.442C791.547 442.116 813.387 435.807 821.185 433.557Z"/>
	<path fill="#FE6947" transform="matrix(1.00174 -1.22677e-16 1.22677e-16 1.00174 0 0)" d="M535.462 332.882C540.783 322.324 546.115 311.959 552.726 302.127C568.385 278.838 609.874 230.738 634.588 219.656C602.518 244.463 574.406 280.188 554.369 315.252C548.892 324.836 545.078 335.473 539.479 344.873C537.954 340.969 536.777 336.865 535.462 332.882Z"/>
	<path fill="#033D77" transform="matrix(1.00174 -1.22677e-16 1.22677e-16 1.00174 0 0)" d="M703.599 260.706C703.728 260.687 703.856 260.663 703.985 260.649C722.597 258.733 744.874 266.62 759.145 278.449C763.362 281.945 766.198 286.253 766.555 291.827C766.758 294.985 766.328 300.394 763.82 302.693C756.078 309.793 727.095 289.155 719.084 284.408C715.426 282.239 711.546 280.19 707.59 278.621C701.203 276.09 693.813 275.52 687.014 275.469C668.772 275.949 651.565 284.272 637.209 295.104C632.488 298.666 628.217 302.746 623.431 306.238L623.678 305.938C645.135 280.102 669.621 263.919 703.599 260.706Z"/>
	<path fill="#033D77" transform="matrix(1.00174 -1.22677e-16 1.22677e-16 1.00174 0 0)" d="M712.776 296.656C713.101 296.638 713.426 296.603 713.751 296.6C723.11 296.523 730.712 300.228 737.243 306.734C738.582 305.649 740.03 304.66 741.416 303.632L743.841 308.439C740.649 311.262 737.303 313.578 733.742 315.916Q743.266 313.617 753.014 312.637C747.739 317.86 741.426 320.64 734.537 323.119C735.892 335.223 733.699 349.001 727.419 359.545C732.36 362.064 737.51 364.447 741.604 368.262C731.607 365.477 721.249 364.156 711.173 361.682C693.269 357.287 676.48 349.959 659.931 341.962L658.53 340.981L658.626 340.274C660.562 339.692 662.804 339.194 664.603 338.281C667.723 336.698 670.867 333.812 673.727 331.713C678.48 328.224 683.33 324.983 688.49 322.114C701.27 315.008 711.47 309.829 726.2 313.993C722.466 310.82 718.694 308.349 714.278 306.22C693.565 309.291 677.116 322.414 661.12 334.943C674.298 317.027 689.738 300.178 712.776 296.656Z"/>
	<path fill="#F7EBEA" transform="matrix(1.00174 -1.22677e-16 1.22677e-16 1.00174 0 0)" d="M709.038 322.726Q710.86 322.476 712.698 322.511C715.717 322.582 718.796 324.106 720.811 326.335C724.112 329.989 725.007 335.479 724.693 340.238C724.271 346.629 721.508 351.189 716.83 355.312C715.795 355.396 715.534 355.248 714.61 354.845L714.589 354.028C716.033 352.169 717.323 350.302 718.437 348.228C728.241 329.98 710.867 328.789 709.038 322.726Z"/>
	<path fill="#FE6947" transform="matrix(1.00174 -1.22677e-16 1.22677e-16 1.00174 0 0)" d="M702.405 325.386C705.61 326.766 708.268 330.116 709.888 333.104C712.077 337.141 713.564 342.965 712.098 347.478C711.486 349.362 710.251 350.872 708.456 351.736C703.944 353.909 698.628 351.323 694.376 349.729C689.112 347.578 684.003 345.261 679.635 341.569C686.873 335.526 694.392 330.336 702.405 325.386Z"/>
	<path fill="#F7EBEA" transform="matrix(1.00174 -1.22677e-16 1.22677e-16 1.00174 0 0)" d="M841.602 188.532C849.792 196.484 867.201 216.376 872.899 225.969Q875.293 229.064 877.632 232.2Q879.97 235.337 882.253 238.515Q884.535 241.693 886.76 244.912Q888.985 248.13 891.153 251.387Q893.32 254.645 895.429 257.94Q897.538 261.236 899.588 264.569Q901.638 267.902 903.627 271.27Q905.617 274.639 907.547 278.043Q909.476 281.447 911.345 284.884Q913.213 288.322 915.02 291.793Q916.827 295.263 918.571 298.765Q920.316 302.267 921.998 305.8Q923.68 309.333 925.298 312.895Q926.917 316.457 928.471 320.048Q930.026 323.638 931.516 327.256Q933.006 330.874 934.432 334.517Q935.857 338.161 937.218 341.83Q938.578 345.498 939.873 349.191Q941.167 352.883 942.396 356.598Q943.624 360.312 944.786 364.048Q945.948 367.785 947.043 371.541Q948.138 375.297 949.166 379.072Q950.194 382.848 951.154 386.641Q952.115 390.433 953.007 394.243Q953.899 398.052 954.724 401.877Q955.548 405.702 956.304 409.541Q957.06 413.38 957.747 417.232Q958.435 421.083 959.053 424.947Q959.672 428.81 960.221 432.684Q960.771 436.558 961.251 440.441Q961.731 444.324 962.142 448.215Q962.553 452.106 962.894 456.004Q964.318 473.361 964.483 490.775C964.503 494.721 964.776 499.123 964.279 503.026C963.818 510.015 963.497 516.956 963.438 523.96C962.943 557.183 955.522 596.415 946.444 628.286C944.227 636.068 941.245 643.631 938.89 651.376C936.584 658.047 934.203 664.707 931.221 671.113C923.701 688.449 916.186 706.377 906.42 722.59C899.416 737.221 889.765 752.075 879.818 764.878C869.358 778.745 859.062 792.767 847.518 805.765C809.532 848.536 761.753 882.327 710.55 907.433C693.12 915.979 674.223 925.253 655.263 929.893C652.776 927.345 650.935 923.575 649.118 920.531C644.313 914.095 639.061 908.078 633.611 902.185C639.895 895.081 642.221 879.857 644.804 870.68C664.601 800.328 673.561 739.086 676.531 665.974C663.687 656.403 649.528 649.004 637.25 638.547C642.84 634.865 648.738 632.162 655.254 630.615Q665.618 629.381 676.055 629.495C682.046 629.76 687.987 630.286 693.955 630.857C699.89 631.292 705.925 632.485 711.815 633.391C725.234 635.455 738.739 637.735 752.312 638.46C766.68 639.227 783.681 638.834 794.968 628.524C804.927 619.428 807.138 604.208 804.762 591.495C803.189 583.08 800.248 575.332 800.567 566.662C804.581 561.511 809.084 556.776 813.559 552.028C814.912 550.187 816.166 548.025 816.948 545.869C819.854 537.857 816.661 530.78 813.198 523.64C816.67 518.212 820.693 513.145 824.586 508.016C825.665 505.504 826.78 503.018 826.922 500.242C827.14 495.965 824.988 493.297 822.217 490.379C829.341 488.307 866.61 496.458 876.718 497.908C884.948 499.089 893.195 499.78 901.481 500.421Q900.401 473.023 897.917 445.716Q895.432 418.409 891.549 391.265Q887.667 364.122 882.396 337.213Q877.126 310.305 870.481 283.702C865.032 262.495 858.613 241.385 851.981 220.516C849.575 212.943 841.994 195.176 841.602 188.532Z"/>
	<path fill="#FE6947" transform="matrix(1.00174 -1.22677e-16 1.22677e-16 1.00174 0 0)" d="M655.254 630.615Q665.618 629.381 676.055 629.495L676.004 643.412C669.142 639.174 661.781 635.325 655.254 630.615Z"/>
	<path fill="#FE6947" transform="matrix(1.00174 -1.22677e-16 1.22677e-16 1.00174 0 0)" d="M906.42 722.59C906.579 714.467 908.768 705.77 910.051 697.722C912.288 683.687 914.27 669.795 915.61 655.644C921.115 660.473 926.172 665.818 931.221 671.113C923.701 688.449 916.186 706.377 906.42 722.59Z"/>
	<path fill="#FE6947" transform="matrix(1.00174 -1.22677e-16 1.22677e-16 1.00174 0 0)" d="M921.511 522.672C935.579 524.033 949.299 525.316 963.438 523.96C962.943 557.183 955.522 596.415 946.444 628.286C944.227 636.068 941.245 643.631 938.89 651.376C932.869 644.062 925.136 637.804 918.095 631.473C919.5 621.491 919.724 611.058 920.216 600.973Q921.849 561.839 921.511 522.672Z"/>
	<path fill="#FE6947" transform="matrix(1.00174 -1.22677e-16 1.22677e-16 1.00174 0 0)" d="M824.586 508.016C850.47 511.326 876.152 516.25 902.062 519.195Q902.167 567.892 900.299 616.553C877.423 596.944 854.032 577.827 828.884 561.182C824.206 558.086 818.859 553.88 813.559 552.028C814.912 550.187 816.166 548.025 816.948 545.869C819.854 537.857 816.661 530.78 813.198 523.64C816.67 518.212 820.693 513.145 824.586 508.016Z"/>
	<path fill="#FE6947" transform="matrix(1.00174 -1.22677e-16 1.22677e-16 1.00174 0 0)" d="M872.899 225.969Q875.293 229.064 877.632 232.2Q879.97 235.337 882.253 238.515Q884.535 241.693 886.76 244.912Q888.985 248.13 891.153 251.387Q893.32 254.645 895.429 257.94Q897.538 261.236 899.588 264.569Q901.638 267.902 903.627 271.27Q905.617 274.639 907.547 278.043Q909.476 281.447 911.345 284.884Q913.213 288.322 915.02 291.793Q916.827 295.263 918.571 298.765Q920.316 302.267 921.998 305.8Q923.68 309.333 925.298 312.895Q926.917 316.457 928.471 320.048Q930.026 323.638 931.516 327.256Q933.006 330.874 934.432 334.517Q935.857 338.161 937.218 341.83Q938.578 345.498 939.873 349.191Q941.167 352.883 942.396 356.598Q943.624 360.312 944.786 364.048Q945.948 367.785 947.043 371.541Q948.138 375.297 949.166 379.072Q950.194 382.848 951.154 386.641Q952.115 390.433 953.007 394.243Q953.899 398.052 954.724 401.877Q955.548 405.702 956.304 409.541Q957.06 413.38 957.747 417.232Q958.435 421.083 959.053 424.947Q959.672 428.81 960.221 432.684Q960.771 436.558 961.251 440.441Q961.731 444.324 962.142 448.215Q962.553 452.106 962.894 456.004Q964.318 473.361 964.483 490.775C964.503 494.721 964.776 499.123 964.279 503.026C949.661 502.914 935.106 501.75 920.498 501.431C920.368 476.657 917.338 452.09 914.326 427.54Q910.438 393.553 904.564 359.852Q898.689 326.152 890.848 292.854C888.399 282.52 885.873 272.247 882.855 262.061C879.321 250.136 875.226 238.199 872.899 225.969Z"/>
	<path fill="#FE6947" transform="matrix(1.00174 -1.22677e-16 1.22677e-16 1.00174 0 0)" d="M800.567 566.662C821.022 573.469 881.37 624.163 897.58 640.35C896.451 662.377 893.248 684.09 889.856 705.856C887.76 719.306 885.893 732.8 882.772 746.059C873.213 741.581 863.11 738.678 853.2 735.11Q836.733 729.032 820.554 722.221Q787.989 708.478 756.437 692.545Q724.885 676.612 694.493 658.564Q694.517 644.705 693.955 630.857C699.89 631.292 705.925 632.485 711.815 633.391C725.234 635.455 738.739 637.735 752.312 638.46C766.68 639.227 783.681 638.834 794.968 628.524C804.927 619.428 807.138 604.208 804.762 591.495C803.189 583.08 800.248 575.332 800.567 566.662Z"/>
	<path fill="#FE6947" transform="matrix(1.00174 -1.22677e-16 1.22677e-16 1.00174 0 0)" d="M694.53 679.563C706.867 685.668 718.579 693.188 730.525 700.021C740.602 705.785 751.079 710.945 761.443 716.172C799.43 735.331 839.723 750.74 879.818 764.878C869.358 778.745 859.062 792.767 847.518 805.765C809.532 848.536 761.753 882.327 710.55 907.433C693.12 915.979 674.223 925.253 655.263 929.893C652.776 927.345 650.935 923.575 649.118 920.531C669.352 857.535 684.591 794.075 691.182 728.167C692.798 712.01 694.294 695.807 694.53 679.563Z"/>
	<path fill="#F7EBEA" transform="matrix(1.00174 -1.22677e-16 1.22677e-16 1.00174 0 0)" d="M274.054 114.087C270.817 123.967 266.721 133.585 263.595 143.476C258.545 159.453 255.075 175.908 251.494 192.26C248.932 203.957 245.931 215.79 244.679 227.712C248.958 229.189 253.443 230.486 257.597 232.273C255.014 238.882 253.095 245.725 251.122 252.535C245.863 280.152 240.815 303.145 243.634 331.561C243.481 333.363 243.643 334.447 242.036 335.673C238.765 338.168 232.973 338.418 232.348 343.29C232.138 344.929 232.881 347.426 233.52 348.943C239.015 366.544 243.505 384.427 250.31 401.603C271.196 454.316 308.874 497.773 359.209 524.22C369.657 529.709 380.589 534.083 391.539 538.451C391.34 547.66 391.466 557.67 389.433 566.678C388.629 572.836 387.794 579.207 387.536 585.407Q386.897 590.416 386.113 595.404Q385.329 600.392 384.4 605.355Q383.471 610.318 382.398 615.252Q381.325 620.186 380.109 625.087Q378.892 629.987 377.534 634.851Q376.175 639.714 374.676 644.535Q373.176 649.357 371.537 654.133Q369.898 658.909 368.12 663.635Q366.342 668.361 364.428 673.033Q362.513 677.705 360.464 682.32Q358.414 686.935 356.231 691.488Q354.048 696.041 351.733 700.528Q349.418 705.016 346.973 709.434Q344.529 713.852 341.957 718.197Q339.385 722.542 336.687 726.811Q333.99 731.079 331.169 735.267C325.422 743.859 319.569 753.705 311.963 760.73L309.013 764.586C299.685 764.212 291.06 763.262 283.241 769.528C280.078 774.984 280.941 781.952 276.633 785.858C270.969 790.705 265.948 796.157 260.919 801.642C254.045 809.38 246.981 817.044 240.708 825.283C235.898 831.601 232.001 838.945 226.39 844.589C219.769 837.461 211.161 831.768 203.823 825.343C188.323 811.774 173.925 797.504 160.866 781.573C156 776.837 151.768 771.019 148.072 765.356Q143.463 759.289 139.072 753.062Q134.68 746.835 130.512 740.457Q126.344 734.079 122.404 727.557Q118.464 721.036 114.757 714.379Q111.05 707.722 107.582 700.938Q104.113 694.154 100.886 687.251Q97.6595 680.349 94.6792 673.337Q91.6988 666.324 88.9685 659.211C84.7297 647.92 81.3165 636.366 77.8744 624.815C73.4205 615.499 72.0614 603.494 70.1471 593.414Q69.2011 588.949 68.3457 584.466Q67.4903 579.983 66.7259 575.483Q65.9614 570.984 65.2882 566.47Q64.6151 561.956 64.0334 557.429Q63.4517 552.902 62.9618 548.364Q62.4719 543.827 62.074 539.28Q61.6761 534.733 61.3703 530.179Q61.0645 525.626 60.851 521.067Q60.6375 516.508 60.5163 511.945Q60.3951 507.383 60.3663 502.819Q60.3375 498.255 60.4011 493.691Q60.4648 489.128 60.6208 484.566Q60.7768 480.005 61.0251 475.448Q61.2734 470.89 61.614 466.339Q61.9545 461.788 62.3871 457.244Q62.8198 452.701 63.3443 448.167Q63.8688 443.633 64.485 439.111Q65.1012 434.589 65.8088 430.08Q66.5165 425.571 67.3152 421.077Q68.114 416.584 69.0036 412.107Q69.8932 407.631 70.8732 403.173Q71.8533 398.716 72.9234 394.279Q73.9935 389.842 75.1532 385.428Q76.3129 381.014 77.5617 376.624Q78.8105 372.234 80.148 367.87Q81.4854 363.507 82.9109 359.171Q84.3365 354.835 85.8495 350.529Q87.3625 346.223 88.9624 341.949Q90.5623 337.674 92.2484 333.433Q93.9345 329.192 95.7061 324.986Q97.4777 320.78 99.3341 316.61Q101.191 312.441 103.131 308.31C111.32 290.98 120.877 274.66 130.849 258.32C133.455 253.94 136.31 249.847 139.327 245.749C148.277 234.754 155.85 222.583 164.788 211.495C168.422 206.878 172.061 202.331 175.998 197.965C186.438 187.111 196.515 175.967 207.429 165.573C220.586 153.044 234.553 141.998 249.338 131.477C256.211 124.191 265.352 118.887 274.054 114.087Z"/>
	<path fill="#FE6947" transform="matrix(1.00174 -1.22677e-16 1.22677e-16 1.00174 0 0)" d="M269.815 759.424C275.318 762.074 280.29 763.862 283.241 769.528C280.078 774.984 280.941 781.952 276.633 785.858C271.745 778.377 271.141 768.07 269.815 759.424Z"/>
	<path fill="#FE6947" transform="matrix(1.00174 -1.22677e-16 1.22677e-16 1.00174 0 0)" d="M241.687 247.107C244.985 248.711 248.033 250.561 251.122 252.535C245.863 280.152 240.815 303.145 243.634 331.561C240.331 330.314 236.822 325.882 234.399 323.4Q237.022 285.156 241.687 247.107Z"/>
	<path fill="#FE6947" transform="matrix(1.00174 -1.22677e-16 1.22677e-16 1.00174 0 0)" d="M232.441 657.314L232.554 657.378L232.632 657.819L232.957 657.49C233.899 659.061 244.177 718.007 245.417 724.322C239.088 720.011 232.375 716.256 225.76 712.405Q213.19 705.202 201.359 696.84C209.551 681.841 220.557 669.433 232.441 657.314Z"/>
	<path fill="#FE6947" transform="matrix(1.00174 -1.22677e-16 1.22677e-16 1.00174 0 0)" d="M175.998 197.965C186.438 187.111 196.515 175.967 207.429 165.573C220.586 153.044 234.553 141.998 249.338 131.477C241.358 160.989 230.951 189.932 227.229 220.484C215.884 216.24 204.944 211.262 193.975 206.143C188.138 203.419 182.118 199.965 175.998 197.965Z"/>
	<path fill="#FE6947" transform="matrix(1.00174 -1.22677e-16 1.22677e-16 1.00174 0 0)" d="M139.327 245.749C148.277 234.754 155.85 222.583 164.788 211.495C184.492 221.642 204.701 231.454 224.808 240.779C221.662 251.8 220.884 263.394 219.799 274.763L216.85 306.743Q190.664 285.402 164.126 264.501C155.967 258.133 147.364 252.243 139.327 245.749Z"/>
	<path fill="#FE6947" transform="matrix(1.00174 -1.22677e-16 1.22677e-16 1.00174 0 0)" d="M77.8744 624.815C88.1955 632.207 100.467 644.078 110.452 652.548C121.18 661.649 132.434 670.121 143.617 678.65C154.019 686.583 164.308 694.641 175.311 701.737C167.769 716.235 160.345 730.856 154.48 746.13C152.046 752.466 150.268 758.946 148.072 765.356Q143.463 759.289 139.072 753.062Q134.68 746.835 130.512 740.457Q126.344 734.079 122.404 727.557Q118.464 721.036 114.757 714.379Q111.05 707.722 107.582 700.938Q104.113 694.154 100.886 687.251Q97.6595 680.349 94.6792 673.337Q91.6988 666.324 88.9685 659.211C84.7297 647.92 81.3165 636.366 77.8744 624.815Z"/>
	<path fill="#FE6947" transform="matrix(1.00174 -1.22677e-16 1.22677e-16 1.00174 0 0)" d="M191.396 712.488C204.857 720.542 217.737 729.47 231.265 737.455C236.9 740.781 242.481 744.312 248.603 746.682C251.757 765.056 255.626 783.765 260.919 801.642C254.045 809.38 246.981 817.044 240.708 825.283C235.898 831.601 232.001 838.945 226.39 844.589C219.769 837.461 211.161 831.768 203.823 825.343C188.323 811.774 173.925 797.504 160.866 781.573C169.164 758.249 177.706 733.308 191.396 712.488Z"/>
	<path fill="#FE6947" transform="matrix(1.00174 -1.22677e-16 1.22677e-16 1.00174 0 0)" d="M249.994 641.426C287.046 608.127 337.701 587.261 387.536 585.407Q386.897 590.416 386.113 595.404Q385.329 600.392 384.4 605.355Q383.471 610.318 382.398 615.252Q381.325 620.186 380.109 625.087Q378.892 629.987 377.534 634.851Q376.175 639.714 374.676 644.535Q373.176 649.357 371.537 654.133Q369.898 658.909 368.12 663.635Q366.342 668.361 364.428 673.033Q362.513 677.705 360.464 682.32Q358.414 686.935 356.231 691.488Q354.048 696.041 351.733 700.528Q349.418 705.016 346.973 709.434Q344.529 713.852 341.957 718.197Q339.385 722.542 336.687 726.811Q333.99 731.079 331.169 735.267C325.422 743.859 319.569 753.705 311.963 760.73Q299.504 754.974 287.178 748.938C280.266 745.593 273.174 742.455 266.848 738.06C262.444 723.08 260.009 707.629 257.381 692.264C255.433 680.871 253.253 669.459 251.726 658.004C250.991 652.49 250.784 646.922 249.994 641.426Z"/>
	<path fill="#FE6947" transform="matrix(1.00174 -1.22677e-16 1.22677e-16 1.00174 0 0)" d="M233.52 348.943C239.015 366.544 243.505 384.427 250.31 401.603C271.196 454.316 308.874 497.773 359.209 524.22C369.657 529.709 380.589 534.083 391.539 538.451C391.34 547.66 391.466 557.67 389.433 566.678C388.52 566.575 387.612 566.437 386.697 566.345C377.093 565.373 365.869 567.84 356.411 569.684C315.711 577.623 278.199 592.826 245.774 619.072C242.184 597.991 240.277 576.441 238.329 555.155Q234.619 514.943 232.911 474.596Q231.204 434.249 231.503 393.867C231.492 381.071 229.627 360.719 233.52 348.943Z"/>
	<path fill="#FE6947" transform="matrix(1.00174 -1.22677e-16 1.22677e-16 1.00174 0 0)" d="M70.1471 593.414Q69.2011 588.949 68.3457 584.466Q67.4903 579.983 66.7259 575.483Q65.9614 570.984 65.2882 566.47Q64.6151 561.956 64.0334 557.429Q63.4517 552.902 62.9618 548.364Q62.4719 543.827 62.074 539.28Q61.6761 534.733 61.3703 530.179Q61.0645 525.626 60.851 521.067Q60.6375 516.508 60.5163 511.945Q60.3951 507.383 60.3663 502.819Q60.3375 498.255 60.4011 493.691Q60.4648 489.128 60.6208 484.566Q60.7768 480.005 61.0251 475.448Q61.2734 470.89 61.614 466.339Q61.9545 461.788 62.3871 457.244Q62.8198 452.701 63.3443 448.167Q63.8688 443.633 64.485 439.111Q65.1012 434.589 65.8088 430.08Q66.5165 425.571 67.3152 421.077Q68.114 416.584 69.0036 412.107Q69.8932 407.631 70.8732 403.173Q71.8533 398.716 72.9234 394.279Q73.9935 389.842 75.1532 385.428Q76.3129 381.014 77.5617 376.624Q78.8105 372.234 80.148 367.87Q81.4854 363.507 82.9109 359.171Q84.3365 354.835 85.8495 350.529Q87.3625 346.223 88.9624 341.949Q90.5623 337.674 92.2484 333.433Q93.9345 329.192 95.7061 324.986Q97.4777 320.78 99.3341 316.61Q101.191 312.441 103.131 308.31C111.32 290.98 120.877 274.66 130.849 258.32Q153.66 279.16 177.259 299.104C188.546 308.606 206.159 321.685 215.045 332.731C214.309 365.705 213.103 398.555 213.531 431.552Q214.275 482.113 218.268 532.522Q222.262 582.931 229.489 632.978C212.949 649.204 197.995 665.376 185.886 685.25C175.556 679.126 166.053 671.868 156.4 664.753Q129.923 645.543 105.25 624.065C94.5002 614.648 82.1525 600.483 70.1471 593.414Z"/>
</svg>
